<?xml version="1.0" standalone="no"?>
<!DOCTYPE svg PUBLIC "-//W3C//DTD SVG 20010904//EN"
 "http://www.w3.org/TR/2001/REC-SVG-20010904/DTD/svg10.dtd">
<svg version="1.0" xmlns="http://www.w3.org/2000/svg"
 width="600.000000pt" height="650.000000pt" viewBox="0 0 600.000000 650.000000"
 preserveAspectRatio="xMidYMid meet">

<g transform="translate(0.000000,650.000000) scale(0.100000,-0.100000)"
fill="#000000" stroke="none">
<path d="M711 4704 c-140 -37 -285 -150 -348 -269 -70 -133 -67 -103 -71 -798
-2 -412 1 -647 8 -685 23 -125 104 -231 220 -286 l65 -31 598 -3 597 -3 -4
-153 c-6 -161 -12 -190 -53 -245 -38 -49 -93 -71 -185 -71 l-77 0 -3 62 -3 63
-208 3 -209 2 4 -117 c3 -105 6 -124 31 -175 36 -74 105 -141 186 -181 l66
-32 190 -3 c214 -4 274 5 380 61 78 41 191 154 232 233 60 114 63 139 63 561
l0 383 -365 0 -365 0 -1 113 c-1 170 0 188 24 236 31 63 80 99 153 111 32 6
75 8 95 4 33 -5 37 -9 43 -42 3 -20 6 -49 6 -64 l0 -28 211 0 212 0 -6 112
c-5 102 -9 118 -42 184 -58 117 -160 193 -292 214 -75 13 -259 12 -345 0 -210
-30 -390 -182 -453 -382 -23 -73 -25 -94 -25 -269 l0 -189 -165 0 -166 0 3
588 3 587 27 47 c44 74 84 93 198 93 l95 0 3 -102 3 -103 204 0 205 0 0 295 0
295 -342 -1 c-266 0 -355 -4 -397 -15z"/>
<path d="M2628 4370 c-20 -11 -50 -36 -65 -57 l-28 -36 -3 -326 c-3 -365 -1
-379 66 -453 68 -75 94 -82 295 -86 l177 -4 0 91 0 91 -141 0 c-81 0 -149 5
-161 11 -42 23 -48 62 -48 344 l0 265 175 0 175 0 0 90 0 90 -202 0 c-182 -1
-207 -3 -240 -20z"/>
<path d="M3162 3903 l3 -488 213 -3 212 -2 0 95 0 95 -110 0 -110 0 0 395 0
395 -105 0 -105 0 2 -487z"/>
<path d="M3650 3900 l0 -491 93 3 92 3 3 488 2 487 -95 0 -95 0 0 -490z"/>
<path d="M4075 4366 c-27 -12 -67 -41 -87 -64 -62 -69 -68 -106 -68 -431 0
-178 4 -301 11 -326 14 -51 73 -110 124 -124 23 -6 120 -11 223 -11 l182 0 0
90 0 90 -170 0 -170 0 0 283 c0 316 0 318 68 337 73 20 81 16 84 -42 l3 -53
93 -3 92 -3 0 141 0 140 -167 0 c-155 0 -172 -2 -218 -24z"/>
<path d="M4552 3903 l3 -488 98 -3 97 -3 0 216 0 215 55 0 55 0 0 -215 0 -215
95 0 95 0 0 255 c0 275 -5 306 -51 339 -13 9 -40 19 -60 22 l-37 6 60 137 c33
75 69 155 79 179 l19 43 -107 -3 -107 -3 -41 -132 c-23 -73 -44 -136 -48 -139
-4 -4 -7 56 -7 134 l0 142 -100 0 -100 0 2 -487z"/>
<path d="M2687 3065 c-101 -38 -159 -122 -160 -229 -1 -118 44 -174 230 -287
105 -65 158 -115 172 -163 28 -104 -68 -183 -191 -156 -66 14 -142 55 -179 97
l-29 34 0 -85 c0 -82 1 -85 28 -105 77 -54 203 -81 296 -61 127 26 206 122
206 249 -1 124 -59 204 -220 299 -121 71 -177 123 -186 169 -9 49 15 95 61
117 74 35 227 5 282 -56 27 -30 33 -21 33 56 l0 75 -57 27 c-49 24 -72 29
-153 31 -65 2 -107 -2 -133 -12z"/>
<path d="M4790 2904 l0 -165 -47 8 c-173 29 -308 -30 -374 -165 -33 -66 -34
-225 -3 -293 31 -66 78 -114 142 -146 54 -26 65 -28 229 -32 l173 -3 0 481 0
481 -60 0 -60 0 0 -166z m-35 -268 l35 -15 0 -201 0 -202 -109 4 c-127 4 -151
15 -188 88 -18 34 -23 61 -23 115 1 105 39 177 115 211 40 18 127 18 170 0z"/>
<path d="M5107 2988 c-37 -33 -40 -75 -7 -108 61 -61 159 32 103 98 -28 33
-66 37 -96 10z"/>
<path d="M3220 2755 l-115 -115 57 0 56 0 4 -207 c3 -238 9 -257 90 -303 54
-31 150 -34 221 -7 l47 19 0 54 c0 58 -5 62 -49 39 -76 -39 -163 -23 -178 33
-5 15 -8 104 -8 197 l0 170 98 3 97 3 0 54 0 55 -101 0 -101 0 4 60 c1 33 1
60 -2 60 -3 0 -57 -52 -120 -115z"/>
<path d="M3667 2744 c-11 -11 -8 -381 4 -454 13 -80 38 -123 92 -155 84 -49
164 -43 256 20 l51 34 0 -40 0 -39 60 0 60 0 0 320 0 320 -60 0 -60 0 0 -228
0 -228 -32 -31 c-18 -17 -43 -36 -55 -42 -32 -16 -115 -14 -141 5 -43 30 -47
49 -52 289 l-5 230 -55 3 c-31 2 -59 0 -63 -4z"/>
<path d="M5090 2430 l0 -320 60 0 60 0 0 320 0 320 -60 0 -60 0 0 -320z"/>
<path d="M5627 2740 c-115 -20 -223 -113 -253 -217 -35 -122 0 -260 85 -335
65 -57 135 -82 231 -82 127 1 217 42 280 128 30 40 30 40 30 183 0 166 -4 178
-80 246 -75 67 -185 96 -293 77z m111 -111 c58 -12 121 -61 146 -113 24 -51
21 -142 -6 -196 -73 -145 -296 -141 -372 6 -15 27 -21 57 -20 99 1 120 71 196
196 214 4 1 29 -4 56 -10z"/>
</g>
</svg>
